<svg version="1.1" id="Layer_1" xmlns="http://www.w3.org/2000/svg" xmlns:xlink="http://www.w3.org/1999/xlink" x="0px" y="0px"
	 width="100%" viewBox="0 0 1440 100" enable-background="new 0 0 1440 100" xml:space="preserve">
<path fill="#FACFC7" opacity="1.000000" stroke="none" 
	d="
M1.000000,42.000000 
	C1.000000,28.337107 1.000000,14.674213 1.000000,1.045487 
	C481.000000,1.045487 961.000000,1.045487 1441.000000,1.045487 
	C1441.000000,20.418890 1441.000000,39.746807 1440.597290,59.450226 
	C1434.243286,61.378464 1428.305420,62.985012 1422.338135,64.473732 
	C1405.121948,68.768890 1387.689819,71.087303 1369.904785,69.994316 
	C1352.872437,68.947571 1338.234985,62.043423 1324.535889,52.222000 
	C1295.735962,31.574085 1265.163330,31.053795 1233.071777,44.122078 
	C1215.997192,51.075188 1198.578857,57.545132 1180.797119,62.289543 
	C1165.961792,66.247849 1150.443970,68.458099 1135.097046,69.489708 
	C1114.501831,70.874100 1095.931641,64.172340 1079.131348,51.860962 
	C1050.694702,31.022329 1020.002563,30.015490 988.233643,43.261940 
	C967.614685,51.859291 946.727844,59.569130 924.925598,64.643623 
	C908.759216,68.406364 892.401917,70.054138 875.848633,68.906563 
	C859.023193,67.740112 844.654541,60.465439 831.087280,50.825378 
	C802.882141,30.784611 772.652893,29.583061 741.492065,42.845066 
	C714.738892,54.231182 687.511108,63.862137 658.527283,67.565460 
	C641.010132,69.803658 623.416321,69.930275 606.965393,62.632942 
	C598.067505,58.685997 589.869568,53.026913 581.676270,47.651806 
	C560.483337,33.748371 537.445496,30.178104 513.323608,36.589550 
	C499.732758,40.201908 486.803223,46.276062 473.530365,51.116676 
	C445.553802,61.319748 417.175110,69.508118 386.907135,68.055695 
	C372.459137,67.362396 359.123230,63.359657 346.963654,55.379566 
	C339.593475,50.542652 332.311218,45.408031 324.434052,41.537525 
	C298.824005,28.953844 273.300232,32.100838 247.574310,42.170605 
	C229.167297,49.375584 210.411118,55.831612 191.473633,61.494556 
	C175.349579,66.316193 158.643341,68.059486 141.654358,67.389725 
	C122.877892,66.649483 107.074059,59.176712 92.011482,48.626450 
	C63.471348,28.636137 33.171928,28.232512 1.730712,41.945679 
	C1.486059,41.943573 1.000000,42.000000 1.000000,42.000000 
z"/>
<path fill="#F0B02A" opacity="1.000000" stroke="none" 
	d="
M1.975364,41.947784 
	C33.171928,28.232512 63.471348,28.636137 92.011482,48.626450 
	C107.074059,59.176712 122.877892,66.649483 141.654358,67.389725 
	C158.643341,68.059486 175.349579,66.316193 191.473633,61.494556 
	C210.411118,55.831612 229.167297,49.375584 247.574310,42.170605 
	C273.300232,32.100838 298.824005,28.953844 324.434052,41.537525 
	C332.311218,45.408031 339.593475,50.542652 346.963654,55.379566 
	C359.123230,63.359657 372.459137,67.362396 386.907135,68.055695 
	C417.175110,69.508118 445.553802,61.319748 473.530365,51.116676 
	C486.803223,46.276062 499.732758,40.201908 513.323608,36.589550 
	C537.445496,30.178104 560.483337,33.748371 581.676270,47.651806 
	C589.869568,53.026913 598.067505,58.685997 606.965393,62.632942 
	C623.416321,69.930275 641.010132,69.803658 658.527283,67.565460 
	C687.511108,63.862137 714.738892,54.231182 741.492065,42.845066 
	C772.652893,29.583061 802.882141,30.784611 831.087280,50.825378 
	C844.654541,60.465439 859.023193,67.740112 875.848633,68.906563 
	C892.401917,70.054138 908.759216,68.406364 924.925598,64.643623 
	C946.727844,59.569130 967.614685,51.859291 988.233643,43.261940 
	C1020.002563,30.015490 1050.694702,31.022329 1079.131348,51.860962 
	C1095.931641,64.172340 1114.501831,70.874100 1135.097046,69.489708 
	C1150.443970,68.458099 1165.961792,66.247849 1180.797119,62.289543 
	C1198.578857,57.545132 1215.997192,51.075188 1233.071777,44.122078 
	C1265.163330,31.053795 1295.735962,31.574085 1324.535889,52.222000 
	C1338.234985,62.043423 1352.872437,68.947571 1369.904785,69.994316 
	C1387.689819,71.087303 1405.121948,68.768890 1422.338135,64.473732 
	C1428.305420,62.985012 1434.243286,61.378464 1440.597290,59.912865 
	C1441.000000,73.662628 1441.000000,87.325256 1441.000000,100.993942 
	C961.645752,101.000000 482.291534,101.000000 2.468533,100.531342 
	C1.991622,80.691048 1.983493,61.319416 1.975364,41.947784 
z"/>
<path fill="#F1B543" opacity="1.000000" stroke="none" 
	d="
M1.730712,41.945679 
	C1.983493,61.319416 1.991622,80.691048 1.999875,100.531342 
	C1.666667,99.844360 1.046745,98.689674 1.042863,97.532928 
	C0.981784,79.334549 1.000000,61.135902 1.000000,42.468658 
	C1.000000,42.000000 1.486059,41.943573 1.730712,41.945679 
z"/>
</svg>