<svg version="1.1" id="Layer_1" xmlns="http://www.w3.org/2000/svg" xmlns:xlink="http://www.w3.org/1999/xlink" x="0px" y="0px"
	 width="100%" viewBox="0 0 1440 100" enable-background="new 0 0 1440 100" xml:space="preserve">
<path fill="#FBCFC9" opacity="1.000000" stroke="none" 
	d="
M1.000000,42.000000 
	C1.000000,28.337107 1.000000,14.674213 1.000000,1.045487 
	C481.000000,1.045487 961.000000,1.045487 1441.000000,1.045487 
	C1441.000000,20.418890 1441.000000,39.746807 1440.593628,59.478027 
	C1437.125000,60.638466 1434.043701,61.327019 1431.003418,62.164009 
	C1413.296631,67.038895 1395.416138,70.369537 1376.907959,70.228973 
	C1358.624512,70.090103 1342.190552,65.036163 1327.506836,54.126411 
	C1298.934082,32.897507 1268.058350,29.787617 1235.520020,43.319153 
	C1215.037720,51.836987 1194.349243,59.619442 1172.716309,64.606712 
	C1153.661743,68.999550 1134.446899,71.419853 1114.878662,68.064278 
	C1101.038086,65.690903 1089.312866,58.973175 1078.040771,51.043930 
	C1049.889160,31.240883 1019.905945,30.218811 988.847107,43.032261 
	C967.895813,51.675831 946.738586,59.598373 924.602600,64.728714 
	C908.593079,68.439186 892.401306,69.994957 876.035706,68.903358 
	C859.231873,67.782532 844.812012,60.609066 831.254700,50.936924 
	C804.362061,31.750933 775.199036,29.351334 744.983521,41.519348 
	C723.961121,49.985229 702.990601,58.421730 680.857178,63.545628 
	C663.112793,67.653458 645.216736,70.068504 626.943176,67.977440 
	C611.233093,66.179733 597.846619,59.173584 585.214722,50.102512 
	C558.576416,30.973387 529.579346,28.896818 499.820404,40.676144 
	C470.514404,52.276184 441.369659,63.948181 409.703308,67.349503 
	C385.901611,69.906075 363.204834,67.665390 343.086121,52.848896 
	C337.084747,48.429184 330.594635,44.488277 323.883423,41.250481 
	C299.640991,29.554848 275.062561,31.235176 250.834106,41.135391 
	C230.310699,49.521656 209.681290,57.442238 188.052277,62.502937 
	C170.635483,66.578056 153.052658,68.834351 135.142303,66.937157 
	C118.910889,65.217804 105.182831,57.788872 92.004593,48.606140 
	C63.423542,28.690565 33.165005,28.242245 1.731777,41.951477 
	C1.487106,41.953156 1.000000,42.000000 1.000000,42.000000 
z"/>
<path fill="#EC8168" opacity="1.000000" stroke="none" 
	d="
M1.976448,41.949795 
	C33.165005,28.242245 63.423542,28.690565 92.004593,48.606140 
	C105.182831,57.788872 118.910889,65.217804 135.142303,66.937157 
	C153.052658,68.834351 170.635483,66.578056 188.052277,62.502937 
	C209.681290,57.442238 230.310699,49.521656 250.834106,41.135391 
	C275.062561,31.235176 299.640991,29.554848 323.883423,41.250481 
	C330.594635,44.488277 337.084747,48.429184 343.086121,52.848896 
	C363.204834,67.665390 385.901611,69.906075 409.703308,67.349503 
	C441.369659,63.948181 470.514404,52.276184 499.820404,40.676144 
	C529.579346,28.896818 558.576416,30.973387 585.214722,50.102512 
	C597.846619,59.173584 611.233093,66.179733 626.943176,67.977440 
	C645.216736,70.068504 663.112793,67.653458 680.857178,63.545628 
	C702.990601,58.421730 723.961121,49.985229 744.983521,41.519348 
	C775.199036,29.351334 804.362061,31.750933 831.254700,50.936924 
	C844.812012,60.609066 859.231873,67.782532 876.035706,68.903358 
	C892.401306,69.994957 908.593079,68.439186 924.602600,64.728714 
	C946.738586,59.598373 967.895813,51.675831 988.847107,43.032261 
	C1019.905945,30.218811 1049.889160,31.240883 1078.040771,51.043930 
	C1089.312866,58.973175 1101.038086,65.690903 1114.878662,68.064278 
	C1134.446899,71.419853 1153.661743,68.999550 1172.716309,64.606712 
	C1194.349243,59.619442 1215.037720,51.836987 1235.520020,43.319153 
	C1268.058350,29.787617 1298.934082,32.897507 1327.506836,54.126411 
	C1342.190552,65.036163 1358.624512,70.090103 1376.907959,70.228973 
	C1395.416138,70.369537 1413.296631,67.038895 1431.003418,62.164009 
	C1434.043701,61.327019 1437.125000,60.638466 1440.593628,59.940666 
	C1441.000000,73.662628 1441.000000,87.325256 1441.000000,100.993942 
	C961.645752,101.000000 482.291534,101.000000 2.468585,100.531342 
	C1.992053,80.691719 1.984251,61.320759 1.976448,41.949795 
z"/>
<path fill="#EE8D77" opacity="1.000000" stroke="none" 
	d="
M1.731777,41.951477 
	C1.984251,61.320759 1.992053,80.691719 1.999927,100.531342 
	C1.666667,99.844360 1.046745,98.689674 1.042863,97.532928 
	C0.981784,79.334549 1.000000,61.135902 1.000000,42.468658 
	C1.000000,42.000000 1.487106,41.953156 1.731777,41.951477 
z"/>
</svg>